<?xml version="1.0" encoding="UTF-8"?>
<!DOCTYPE svg PUBLIC "-//W3C//DTD SVG 1.1//EN" "http://www.w3.org/Graphics/SVG/1.1/DTD/svg11.dtd">
<svg xmlns="http://www.w3.org/2000/svg" version="1.1" width="205px" height="205px" style="shape-rendering:geometricPrecision; text-rendering:geometricPrecision; image-rendering:optimizeQuality; fill-rule:evenodd; clip-rule:evenodd" xmlns:xlink="http://www.w3.org/1999/xlink">
<g><path style="opacity:1" fill="#1d1f32" d="M -0.5,-0.5 C 67.8333,-0.5 136.167,-0.5 204.5,-0.5C 204.5,67.8333 204.5,136.167 204.5,204.5C 136.167,204.5 67.8333,204.5 -0.5,204.5C -0.5,136.167 -0.5,67.8333 -0.5,-0.5 Z"/></g>
<g><path style="opacity:1" fill="#b4b6b9" d="M 72.5,20.5 C 77.1001,20.3451 77.4334,21.0118 73.5,22.5C 71.279,22.5613 70.9456,21.8946 72.5,20.5 Z"/></g>
<g><path style="opacity:1" fill="#919499" d="M 110.5,22.5 C 111.901,22.9709 113.234,23.6376 114.5,24.5C 112.167,25.9415 110.834,25.2748 110.5,22.5 Z"/></g>
<g><path style="opacity:1" fill="#b4b6ba" d="M 90.5,22.5 C 92.8418,22.7748 92.8418,23.6081 90.5,25C 88.5497,26.4961 86.5497,26.6627 84.5,25.5C 86.7451,24.7918 88.7451,23.7918 90.5,22.5 Z"/></g>
<g><path style="opacity:1" fill="#d0d2d3" d="M 31.5,24.5 C 34.9563,25.5362 35.2896,27.2029 32.5,29.5C 30.2957,28.218 29.9624,26.5514 31.5,24.5 Z"/></g>
<g><path style="opacity:1" fill="#d2e9ed" d="M 162.5,51.5 C 162.5,52.1667 162.5,52.8333 162.5,53.5C 159.322,56.2583 155.655,58.2583 151.5,59.5C 150.5,59.5 149.5,59.5 148.5,59.5C 147.833,59.5 147.167,59.5 146.5,59.5C 132.714,52.4414 118.714,45.608 104.5,39C 102.833,38.3333 101.167,38.3333 99.5,39C 95.5977,41.1189 91.5977,42.9523 87.5,44.5C 82.2244,44.7314 78.2244,42.5648 75.5,38C 76.305,36.8873 76.9717,35.7206 77.5,34.5C 85.5137,30.4107 93.6804,26.4107 102,22.5C 122.205,32.0692 142.371,41.7359 162.5,51.5 Z"/></g>
<g><path style="opacity:1" fill="#999ba1" d="M 119.5,25.5 C 121.312,25.7713 122.978,26.438 124.5,27.5C 122.069,28.7856 120.403,28.119 119.5,25.5 Z"/></g>
<g><path style="opacity:1" fill="#babcbf" d="M 150.5,25.5 C 154.164,24.9999 157.164,26.1666 159.5,29C 156.091,28.6338 153.091,27.4671 150.5,25.5 Z"/></g>
<g><path style="opacity:1" fill="#d0d3d4" d="M 67.5,25.5 C 68.552,25.3505 69.552,25.5172 70.5,26C 66.5914,27.7819 63.258,30.2819 60.5,33.5C 59.479,32.9984 59.3123,32.3317 60,31.5C 62.1141,28.8792 64.6141,26.8792 67.5,25.5 Z"/></g>
<g><path style="opacity:1" fill="#37576b" d="M 175.5,31.5 C 176.75,31.5774 177.583,32.244 178,33.5C 180.333,32.1667 181.333,32.8333 181,35.5C 176.848,37.4919 175.015,36.1585 175.5,31.5 Z"/></g>
<g><path style="opacity:1" fill="#c5c8cb" d="M 56.5,38.5 C 57.3764,38.3691 58.0431,38.7025 58.5,39.5C 56.1916,40.8734 55.5249,40.5401 56.5,38.5 Z"/></g>
<g><path style="opacity:1" fill="#a8acb0" d="M 151.5,39.5 C 155.024,39.9289 158.024,41.4289 160.5,44C 162.007,44.8373 162.507,46.0039 162,47.5C 158.551,44.5227 155.051,41.8561 151.5,39.5 Z"/></g>
<g><path style="opacity:1" fill="#bcbfc2" d="M 45.5,42.5 C 46.5862,42.62 47.2528,43.2867 47.5,44.5C 46.6964,46.9573 45.6964,46.9573 44.5,44.5C 44.8627,43.8165 45.1961,43.1499 45.5,42.5 Z"/></g>
<g><path style="opacity:1" fill="#3a5f73" d="M 146.5,59.5 C 146.833,60.1667 147.167,60.8333 147.5,61.5C 144.858,62.8952 142.191,64.3952 139.5,66C 140.337,67.0113 140.67,68.1779 140.5,69.5C 136.101,61.6218 129.434,56.4551 120.5,54C 109.536,52.5481 98.5356,52.2148 87.5,53C 83.7076,53.8757 80.0409,55.0424 76.5,56.5C 63.5129,61.1025 57.5129,70.4359 58.5,84.5C 57.6862,82.369 57.1862,80.0356 57,77.5C 56.8091,79.7078 56.3091,81.7078 55.5,83.5C 55.201,75.747 55.5343,68.0804 56.5,60.5C 66.6765,54.9114 77.0099,49.5781 87.5,44.5C 91.5977,42.9523 95.5977,41.1189 99.5,39C 101.167,38.3333 102.833,38.3333 104.5,39C 118.714,45.608 132.714,52.4414 146.5,59.5 Z"/></g>
<g><path style="opacity:1" fill="#dee0e1" d="M 181.5,46.5 C 182.873,46.3433 184.207,46.51 185.5,47C 186.474,49.702 185.474,51.0354 182.5,51C 181.62,49.6439 181.286,48.1439 181.5,46.5 Z"/></g>
<g><path style="opacity:1" fill="#fafbfb" d="M 140.5,69.5 C 144.047,82.4183 144.381,95.4183 141.5,108.5C 140.761,108.631 140.094,108.464 139.5,108C 143.228,97.7833 140.228,90.45 130.5,86C 124.5,84.6667 118.5,83.3333 112.5,82C 108.968,80.0718 105.634,77.9052 102.5,75.5C 101.157,68.6069 97.157,66.6069 90.5,69.5C 85.3433,70.1584 80.51,71.825 76,74.5C 75.5,74.1667 75,73.8333 74.5,73.5C 77.9588,70.2634 81.9588,67.7634 86.5,66C 81.4515,66.851 76.7848,68.851 72.5,72C 71.2068,72.49 69.8734,72.6567 68.5,72.5C 68.3359,69.8127 68.5026,67.146 69,64.5C 71.0282,61.3078 73.5282,58.6411 76.5,56.5C 80.0409,55.0424 83.7076,53.8757 87.5,53C 98.5356,52.2148 109.536,52.5481 120.5,54C 129.434,56.4551 136.101,61.6218 140.5,69.5 Z"/></g>
<g><path style="opacity:1" fill="#d6d8da" d="M 172.5,51.5 C 177.34,52.1885 177.673,53.8552 173.5,56.5C 171.296,55.218 170.962,53.5514 172.5,51.5 Z"/></g>
<g><path style="opacity:1" fill="#c6c8ca" d="M 168.5,59.5 C 169.675,59.281 170.675,59.6143 171.5,60.5C 169.948,61.7979 168.948,61.4646 168.5,59.5 Z"/></g>
<g><path style="opacity:1" fill="#4e798a" d="M 147.5,61.5 C 148.494,71.6532 148.828,81.9865 148.5,92.5C 147.681,95.3054 147.181,98.3054 147,101.5C 146.667,101.833 146.333,102.167 146,102.5C 145.667,101.5 145.333,100.5 145,99.5C 144.547,102.767 143.713,105.934 142.5,109C 144.148,112.245 143.815,115.078 141.5,117.5C 142.678,114.523 142.678,111.523 141.5,108.5C 144.381,95.4183 144.047,82.4183 140.5,69.5C 140.67,68.1779 140.337,67.0113 139.5,66C 142.191,64.3952 144.858,62.8952 147.5,61.5 Z"/></g>
<g><path style="opacity:1" fill="#e1e2e3" d="M 24.5,66.5 C 25.8333,66.5 27.1667,66.5 28.5,66.5C 28.1144,70.7376 26.4477,71.4043 23.5,68.5C 23.8627,67.8165 24.1961,67.1499 24.5,66.5 Z"/></g>
<g><path style="opacity:1" fill="#aedfe5" d="M 76.5,56.5 C 73.5282,58.6411 71.0282,61.3078 69,64.5C 68.5026,67.146 68.3359,69.8127 68.5,72.5C 69.8734,72.6567 71.2068,72.49 72.5,72C 76.7848,68.851 81.4515,66.851 86.5,66C 81.9588,67.7634 77.9588,70.2634 74.5,73.5C 75,73.8333 75.5,74.1667 76,74.5C 80.51,71.825 85.3433,70.1584 90.5,69.5C 89.3998,70.5585 88.0664,71.3918 86.5,72C 85.3044,72.6543 85.3044,73.1543 86.5,73.5C 88.7388,72.2122 91.0721,71.2122 93.5,70.5C 87.2802,74.5465 81.4468,79.2132 76,84.5C 73.417,87.9974 71.0836,91.6641 69,95.5C 68.3333,108.167 68.3333,120.833 69,133.5C 69.7297,137.896 72.2297,140.73 76.5,142C 90.1788,142.833 103.846,142.666 117.5,141.5C 119.4,138.871 121.4,138.871 123.5,141.5C 125.075,140.544 126.742,139.877 128.5,139.5C 125.466,142.241 121.799,143.741 117.5,144C 104.5,144.667 91.5,144.667 78.5,144C 70.3239,142.177 66.6572,137.01 67.5,128.5C 66.7145,117.507 66.5479,106.507 67,95.5C 68.4404,94.0696 68.7737,92.403 68,90.5C 65.722,95.8996 64.8887,101.566 65.5,107.5C 64.0413,107.433 62.7079,107.766 61.5,108.5C 60.3995,106.723 59.5662,104.723 59,102.5C 58.5005,96.5092 58.3338,90.5092 58.5,84.5C 57.5129,70.4359 63.5129,61.1025 76.5,56.5 Z"/></g>
<g><path style="opacity:1" fill="#849fa9" d="M 102.5,75.5 C 100.821,74.0003 99.4881,72.167 98.5,70C 96.9343,69.235 95.6009,69.4017 94.5,70.5C 94.1667,70.5 93.8333,70.5 93.5,70.5C 91.0721,71.2122 88.7388,72.2122 86.5,73.5C 85.3044,73.1543 85.3044,72.6543 86.5,72C 88.0664,71.3918 89.3998,70.5585 90.5,69.5C 97.157,66.6069 101.157,68.6069 102.5,75.5 Z"/></g>
<g><path style="opacity:1" fill="#4e7d91" d="M 164.5,66.5 C 170.759,68.2351 173.592,72.2351 173,78.5C 171.978,79.354 171.145,80.354 170.5,81.5C 176.157,84.6045 176.823,88.4379 172.5,93C 169.986,94.2525 167.32,94.7525 164.5,94.5C 164.5,85.1667 164.5,75.8333 164.5,66.5 Z"/></g>
<g><path style="opacity:1" fill="#6995a6" d="M 31.5,66.5 C 32.3019,67.9516 32.8019,69.6183 33,71.5C 33.9246,72.0465 34.7579,72.7132 35.5,73.5C 33.6707,74.2824 32.1707,73.6157 31,71.5C 30.3603,69.735 30.5269,68.0683 31.5,66.5 Z"/></g>
<g><path style="opacity:1" fill="#f8f8f8" d="M 93.5,70.5 C 93.8333,70.5 94.1667,70.5 94.5,70.5C 96.6754,75.8919 100.009,80.7252 104.5,85C 109.005,86.6931 113.338,88.5264 117.5,90.5C 120.902,90.3424 124.236,90.6758 127.5,91.5C 127.947,94.5239 128.78,94.8572 130,92.5C 133.493,95.6415 135.66,99.4748 136.5,104C 135.566,109.425 134.899,114.925 134.5,120.5C 134.664,123.187 134.497,125.854 134,128.5C 133.195,132.776 131.362,136.443 128.5,139.5C 126.742,139.877 125.075,140.544 123.5,141.5C 121.4,138.871 119.4,138.871 117.5,141.5C 103.846,142.666 90.1788,142.833 76.5,142C 72.2297,140.73 69.7297,137.896 69,133.5C 68.3333,120.833 68.3333,108.167 69,95.5C 71.0836,91.6641 73.417,87.9974 76,84.5C 81.4468,79.2132 87.2802,74.5465 93.5,70.5 Z"/></g>
<g><path style="opacity:1" fill="#adc1c7" d="M 162.5,51.5 C 163.117,51.6107 163.617,51.944 164,52.5C 164.499,57.1548 164.666,61.8215 164.5,66.5C 164.5,75.8333 164.5,85.1667 164.5,94.5C 164.5,100.833 164.5,107.167 164.5,113.5C 163.833,93.5 163.167,73.5 162.5,53.5C 162.5,52.8333 162.5,52.1667 162.5,51.5 Z"/></g>
<g><path style="opacity:1" fill="#578598" d="M 33.5,78.5 C 34.0472,80.5179 35.0472,82.3513 36.5,84C 32.5369,84.1177 31.5369,82.2843 33.5,78.5 Z"/></g>
<g><path style="opacity:1" fill="#507889" d="M 58.5,84.5 C 58.3338,90.5092 58.5005,96.5092 59,102.5C 59.5662,104.723 60.3995,106.723 61.5,108.5C 61.5,108.833 61.5,109.167 61.5,109.5C 59.7202,110.99 59.0535,112.99 59.5,115.5C 58.6981,114.048 58.1981,112.382 58,110.5C 57.3918,112.066 56.5585,113.4 55.5,114.5C 55.5,104.167 55.5,93.8333 55.5,83.5C 56.3091,81.7078 56.8091,79.7078 57,77.5C 57.1862,80.0356 57.6862,82.369 58.5,84.5 Z"/></g>
<g><path style="opacity:1" fill="#222224" d="M 81.5,87.5 C 83.9775,87.0508 85.9775,87.7175 87.5,89.5C 84.9356,89.3706 82.2689,89.704 79.5,90.5C 79.1667,90.3333 78.8333,90.1667 78.5,90C 79.5707,89.1482 80.5707,88.3149 81.5,87.5 Z"/></g>
<g><path style="opacity:1" fill="#aad1d8" d="M 94.5,70.5 C 95.6009,69.4017 96.9343,69.235 98.5,70C 99.4881,72.167 100.821,74.0003 102.5,75.5C 105.634,77.9052 108.968,80.0718 112.5,82C 118.5,83.3333 124.5,84.6667 130.5,86C 140.228,90.45 143.228,97.7833 139.5,108C 140.094,108.464 140.761,108.631 141.5,108.5C 142.678,111.523 142.678,114.523 141.5,117.5C 139.787,119.85 137.453,120.85 134.5,120.5C 134.899,114.925 135.566,109.425 136.5,104C 135.66,99.4748 133.493,95.6415 130,92.5C 128.78,94.8572 127.947,94.5239 127.5,91.5C 125.969,89.3199 123.802,88.3199 121,88.5C 119.319,88.6083 118.152,89.2749 117.5,90.5C 113.338,88.5264 109.005,86.6931 104.5,85C 100.009,80.7252 96.6754,75.8919 94.5,70.5 Z"/></g>
<g><path style="opacity:1" fill="#2b3035" d="M 127.5,91.5 C 124.236,90.6758 120.902,90.3424 117.5,90.5C 118.152,89.2749 119.319,88.6083 121,88.5C 123.802,88.3199 125.969,89.3199 127.5,91.5 Z"/></g>
<g><path style="opacity:1" fill="#d5d7d7" d="M 23.5,89.5 C 25.337,89.6395 25.6704,90.3061 24.5,91.5C 23.7025,91.0431 23.3691,90.3764 23.5,89.5 Z"/></g>
<g><path style="opacity:1" fill="#c7c9cb" d="M 178.5,98.5 C 180.465,98.9483 180.798,99.9483 179.5,101.5C 178.614,100.675 178.281,99.675 178.5,98.5 Z"/></g>
<g><path style="opacity:1" fill="#121119" d="M 77.5,99.5 C 86.6584,98.4906 90.4918,102.491 89,111.5C 83.5812,119.41 78.2478,119.41 73,111.5C 71.4742,106.239 72.9742,102.239 77.5,99.5 Z"/></g>
<g><path style="opacity:1" fill="#cfcfd1" d="M 80.5,100.5 C 84.1612,100.35 85.1612,101.85 83.5,105C 82.5509,105.617 81.7175,105.451 81,104.5C 80.51,103.207 80.3433,101.873 80.5,100.5 Z"/></g>
<g><path style="opacity:1" fill="#91afb6" d="M 67.5,128.5 C 66.8333,125.833 66.1667,123.167 65.5,120.5C 65.5,116.833 65.5,113.167 65.5,109.5C 64.1667,109.5 62.8333,109.5 61.5,109.5C 61.5,109.167 61.5,108.833 61.5,108.5C 62.7079,107.766 64.0413,107.433 65.5,107.5C 64.8887,101.566 65.722,95.8996 68,90.5C 68.7737,92.403 68.4404,94.0696 67,95.5C 66.5479,106.507 66.7145,117.507 67.5,128.5 Z"/></g>
<g><path style="opacity:1" fill="#15141d" d="M 119.5,100.5 C 126.371,98.275 130.704,100.775 132.5,108C 132,113.833 128.833,117 123,117.5C 116.545,115.603 113.878,111.27 115,104.5C 117.011,100.998 118.344,100.998 119,104.5C 121.829,105.674 122.829,104.674 122,101.5C 121.329,100.748 120.496,100.414 119.5,100.5 Z"/></g>
<g><path style="opacity:1" fill="#abadb1" d="M 169.5,103.5 C 170.782,104.708 170.782,106.042 169.5,107.5C 168.708,106.3 168.708,104.967 169.5,103.5 Z"/></g>
<g><path style="opacity:1" fill="#10354a" d="M 146.5,59.5 C 147.167,59.5 147.833,59.5 148.5,59.5C 149.158,72.927 149.491,86.427 149.5,100C 149.499,113.517 148.833,126.684 147.5,139.5C 148.484,123.911 148.817,108.244 148.5,92.5C 148.828,81.9865 148.494,71.6532 147.5,61.5C 147.167,60.8333 146.833,60.1667 146.5,59.5 Z"/></g>
<g><path style="opacity:1" fill="#b0c1c6" d="M 148.5,59.5 C 149.5,59.5 150.5,59.5 151.5,59.5C 150.177,86.1008 150.177,112.767 151.5,139.5C 152.308,139.808 152.975,140.308 153.5,141C 151.575,140.865 149.575,140.698 147.5,140.5C 147.5,140.167 147.5,139.833 147.5,139.5C 148.833,126.684 149.499,113.517 149.5,100C 149.491,86.427 149.158,72.927 148.5,59.5 Z"/></g>
<g><path style="opacity:1" fill="#a3a4a9" d="M 28.5,106.5 C 30.5622,107.505 31.3955,109.171 31,111.5C 29.117,110.347 28.2837,108.681 28.5,106.5 Z"/></g>
<g><path style="opacity:1" fill="#b5b6ba" d="M 77.5,109.5 C 79.0481,109.821 79.7148,110.821 79.5,112.5C 76.7524,112.598 76.0857,111.598 77.5,109.5 Z"/></g>
<g><path style="opacity:1" fill="#b4b5b8" d="M 124.5,109.5 C 126.048,109.821 126.715,110.821 126.5,112.5C 123.752,112.598 123.086,111.598 124.5,109.5 Z"/></g>
<g><path style="opacity:1" fill="#c9e7ec" d="M 61.5,109.5 C 62.8333,109.5 64.1667,109.5 65.5,109.5C 65.5,113.167 65.5,116.833 65.5,120.5C 62.8851,119.55 60.8851,117.883 59.5,115.5C 59.0535,112.99 59.7202,110.99 61.5,109.5 Z"/></g>
<g><path style="opacity:1" fill="#2f3f4e" d="M 56.5,60.5 C 55.5343,68.0804 55.201,75.747 55.5,83.5C 55.5,93.8333 55.5,104.167 55.5,114.5C 55.1981,122.918 55.5314,131.252 56.5,139.5C 55.1675,126.684 54.5008,113.517 54.5,100C 54.5008,86.4826 55.1675,73.316 56.5,60.5 Z"/></g>
<g><path style="opacity:1" fill="#6992a3" d="M 34.5,114.5 C 34.6478,116.934 34.8144,119.601 35,122.5C 36.7123,124.581 36.2123,124.915 33.5,123.5C 32.0638,120.232 32.3971,117.232 34.5,114.5 Z"/></g>
<g><path style="opacity:1" fill="#d5d8da" d="M 26.5,122.5 C 27.5,122.5 28.5,122.5 29.5,122.5C 29.5,123.5 29.5,124.5 29.5,125.5C 28.5,125.5 27.5,125.5 26.5,125.5C 26.5,124.5 26.5,123.5 26.5,122.5 Z"/></g>
<g><path style="opacity:1" fill="#6090a0" d="M 148.5,92.5 C 148.817,108.244 148.484,123.911 147.5,139.5C 147.5,139.833 147.5,140.167 147.5,140.5C 135.783,145.925 124.116,151.259 112.5,156.5C 109.364,158.297 106.03,159.631 102.5,160.5C 102.167,160.5 101.833,160.5 101.5,160.5C 100.833,160.5 100.5,160.167 100.5,159.5C 101.485,155.366 101.818,151.032 101.5,146.5C 93.4793,146.331 85.4793,146.165 77.5,146C 81.5,146.667 81.5,147.333 77.5,148C 81.6899,149.926 85.6899,152.093 89.5,154.5C 78.0851,150.29 67.0851,145.29 56.5,139.5C 55.5314,131.252 55.1981,122.918 55.5,114.5C 56.5585,113.4 57.3918,112.066 58,110.5C 58.1981,112.382 58.6981,114.048 59.5,115.5C 60.8851,117.883 62.8851,119.55 65.5,120.5C 66.1667,123.167 66.8333,125.833 67.5,128.5C 66.6572,137.01 70.3239,142.177 78.5,144C 91.5,144.667 104.5,144.667 117.5,144C 121.799,143.741 125.466,142.241 128.5,139.5C 131.362,136.443 133.195,132.776 134,128.5C 134.497,125.854 134.664,123.187 134.5,120.5C 137.453,120.85 139.787,119.85 141.5,117.5C 143.815,115.078 144.148,112.245 142.5,109C 143.713,105.934 144.547,102.767 145,99.5C 145.333,100.5 145.667,101.5 146,102.5C 146.333,102.167 146.667,101.833 147,101.5C 147.181,98.3054 147.681,95.3054 148.5,92.5 Z"/></g>
<g><path style="opacity:1" fill="#c5abb1" d="M 104.5,120.5 C 106.001,123.157 105.501,125.49 103,127.5C 100.843,126.615 100.01,124.948 100.5,122.5C 102.483,122.843 103.817,122.176 104.5,120.5 Z"/></g>
<g><path style="opacity:1" fill="#1b161a" d="M 104.5,120.5 C 103.817,122.176 102.483,122.843 100.5,122.5C 101.183,120.824 102.517,120.157 104.5,120.5 Z"/></g>
<g><path style="opacity:1" fill="#c8c9cc" d="M 122.5,113.5 C 124.337,113.639 124.67,114.306 123.5,115.5C 122.702,115.043 122.369,114.376 122.5,113.5 Z"/></g>
<g><path style="opacity:1" fill="#c1c2c6" d="M 79.5,113.5 C 81.337,113.639 81.6704,114.306 80.5,115.5C 79.7025,115.043 79.3691,114.376 79.5,113.5 Z"/></g>
<g><path style="opacity:1" fill="#89bcca" d="M 164.5,113.5 C 171.001,114.33 176.168,117.33 180,122.5C 181.45,131.228 177.617,135.562 168.5,135.5C 172.251,137.185 173.251,139.851 171.5,143.5C 174.492,144.887 177.325,146.554 180,148.5C 182.035,152.302 181.202,155.469 177.5,158C 174.464,160.006 171.131,160.84 167.5,160.5C 167.439,163.05 166.106,164.55 163.5,165C 157.833,165.333 152.167,165.667 146.5,166C 146.043,166.414 145.709,166.914 145.5,167.5C 153.467,169.799 153.467,172.299 145.5,175C 140.617,176.257 136.284,175.424 132.5,172.5C 139.707,169.817 145.707,165.317 150.5,159C 155.187,156.301 159.853,153.634 164.5,151C 165.774,150.023 165.774,149.189 164.5,148.5C 164.5,136.833 164.5,125.167 164.5,113.5 Z"/></g>
<g><path style="opacity:1" fill="#d6eef3" d="M 162.5,53.5 C 163.167,73.5 163.833,93.5 164.5,113.5C 164.5,125.167 164.5,136.833 164.5,148.5C 149.71,156.774 134.376,164.108 118.5,170.5C 116.926,170.063 115.759,169.063 115,167.5C 113.336,163.756 112.503,160.09 112.5,156.5C 124.116,151.259 135.783,145.925 147.5,140.5C 149.575,140.698 151.575,140.865 153.5,141C 152.975,140.308 152.308,139.808 151.5,139.5C 150.177,112.767 150.177,86.1008 151.5,59.5C 155.655,58.2583 159.322,56.2583 162.5,53.5 Z"/></g>
<g><path style="opacity:1" fill="#a0d4de" d="M 77.5,34.5 C 76.9717,35.7206 76.305,36.8873 75.5,38C 78.2244,42.5648 82.2244,44.7314 87.5,44.5C 77.0099,49.5781 66.6765,54.9114 56.5,60.5C 55.1675,73.316 54.5008,86.4826 54.5,100C 54.5008,113.517 55.1675,126.684 56.5,139.5C 67.0851,145.29 78.0851,150.29 89.5,154.5C 92.7512,156.957 96.4179,158.624 100.5,159.5C 100.5,160.167 100.833,160.5 101.5,160.5C 101.5,166.167 101.5,171.833 101.5,177.5C 84.4118,170.3 67.4118,162.8 50.5,155C 46.8061,153.491 43.4728,151.491 40.5,149C 41.2718,147.779 42.2718,146.779 43.5,146C 42.5509,145.383 41.7175,145.549 41,146.5C 40.1817,114.791 40.3483,83.1248 41.5,51.5C 53.4955,45.8357 65.4955,40.169 77.5,34.5 Z"/></g>
<g><path style="opacity:1" fill="#6699a9" d="M 100.5,159.5 C 96.4179,158.624 92.7512,156.957 89.5,154.5C 85.6899,152.093 81.6899,149.926 77.5,148C 81.5,147.333 81.5,146.667 77.5,146C 85.4793,146.165 93.4793,146.331 101.5,146.5C 101.818,151.032 101.485,155.366 100.5,159.5 Z"/></g>
<g><path style="opacity:1" fill="#7aadbe" d="M 29.5,131.5 C 31.3786,131.393 31.7119,131.893 30.5,133C 32.9531,136.681 32.9531,140.348 30.5,144C 31.1007,145.605 32.1007,146.938 33.5,148C 33.1667,148.333 32.8333,148.667 32.5,149C 38.0925,152.471 43.7591,155.971 49.5,159.5C 47.2192,161.674 47.2192,163.674 49.5,165.5C 49.0302,166.463 48.3635,166.463 47.5,165.5C 45.6645,162.832 43.3312,160.666 40.5,159C 34.7558,157.987 29.0891,156.654 23.5,155C 13.1861,149.049 12.8528,142.382 22.5,135C 24.5766,133.295 26.91,132.128 29.5,131.5 Z"/></g>
<g><path style="opacity:1" fill="#aedce4" d="M 112.5,156.5 C 112.503,160.09 113.336,163.756 115,167.5C 115.759,169.063 116.926,170.063 118.5,170.5C 114.565,172.467 110.565,174.467 106.5,176.5C 105.417,176.539 104.417,176.873 103.5,177.5C 102.505,171.872 102.171,166.206 102.5,160.5C 106.03,159.631 109.364,158.297 112.5,156.5 Z"/></g>
<g><path style="opacity:1" fill="#5c8da1" d="M 164.5,148.5 C 165.774,149.189 165.774,150.023 164.5,151C 159.853,153.634 155.187,156.301 150.5,159C 145.707,165.317 139.707,169.817 132.5,172.5C 130.143,172.337 127.81,172.503 125.5,173C 124.748,173.671 124.414,174.504 124.5,175.5C 123.778,175.082 123.278,174.416 123,173.5C 122.612,174.428 121.945,175.095 121,175.5C 117.592,176.351 114.259,177.351 111,178.5C 109.378,177.901 107.878,177.234 106.5,176.5C 110.565,174.467 114.565,172.467 118.5,170.5C 134.376,164.108 149.71,156.774 164.5,148.5 Z"/></g>
<g><path style="opacity:1" fill="#385d72" d="M 23.5,158.5 C 25.1172,159.038 26.7839,159.371 28.5,159.5C 28.5,160.5 28.5,161.5 28.5,162.5C 26.8333,162.5 25.1667,162.5 23.5,162.5C 23.5,161.167 23.5,159.833 23.5,158.5 Z"/></g>
<g><path style="opacity:1" fill="#70a1b2" d="M 41.5,51.5 C 40.3483,83.1248 40.1817,114.791 41,146.5C 41.7175,145.549 42.5509,145.383 43.5,146C 42.2718,146.779 41.2718,147.779 40.5,149C 43.4728,151.491 46.8061,153.491 50.5,155C 67.4118,162.8 84.4118,170.3 101.5,177.5C 101.5,171.833 101.5,166.167 101.5,160.5C 101.833,160.5 102.167,160.5 102.5,160.5C 102.171,166.206 102.505,171.872 103.5,177.5C 104.417,176.873 105.417,176.539 106.5,176.5C 107.878,177.234 109.378,177.901 111,178.5C 114.259,177.351 117.592,176.351 121,175.5C 121.945,175.095 122.612,174.428 123,173.5C 123.278,174.416 123.778,175.082 124.5,175.5C 127.487,175.948 128.487,177.448 127.5,180C 122.222,182.016 116.722,182.85 111,182.5C 102.281,183.15 94.114,181.316 86.5,177C 82.5817,175.844 78.5817,175.344 74.5,175.5C 76.9686,174.683 79.6353,174.183 82.5,174C 76.2063,172.718 70.0396,171.218 64,169.5C 58.0274,169.272 57.1941,171.105 61.5,175C 59.2484,174.95 57.5818,173.784 56.5,171.5C 54.187,170.727 51.8537,170.06 49.5,169.5C 47.2593,169.881 44.926,170.048 42.5,170C 44.1193,170.236 45.1193,171.069 45.5,172.5C 41.4092,171.793 38.4092,169.626 36.5,166C 36.6301,164.941 37.1301,164.108 38,163.5C 39.077,168.115 41.9103,169.615 46.5,168C 47.2524,167.329 47.5858,166.496 47.5,165.5C 48.3635,166.463 49.0302,166.463 49.5,165.5C 47.2192,163.674 47.2192,161.674 49.5,159.5C 43.7591,155.971 38.0925,152.471 32.5,149C 32.8333,148.667 33.1667,148.333 33.5,148C 32.1007,146.938 31.1007,145.605 30.5,144C 32.9531,140.348 32.9531,136.681 30.5,133C 31.7119,131.893 31.3786,131.393 29.5,131.5C 31.9849,129.087 34.9849,127.42 38.5,126.5C 39.3332,101.84 39.8332,77.1734 40,52.5C 40.3826,51.944 40.8826,51.6107 41.5,51.5 Z"/></g>
<g><path style="opacity:1" fill="#82b6c6" d="M 74.5,175.5 C 74.3893,176.117 74.056,176.617 73.5,177C 75.7173,178.268 77.7173,179.768 79.5,181.5C 79.0233,182.478 78.3567,183.311 77.5,184C 74.1667,184.667 70.8333,184.667 67.5,184C 64.7854,183.125 63.4521,181.292 63.5,178.5C 59.8183,178.665 56.1516,178.499 52.5,178C 49.4048,177.065 47.0714,175.231 45.5,172.5C 45.1193,171.069 44.1193,170.236 42.5,170C 44.926,170.048 47.2593,169.881 49.5,169.5C 51.8537,170.06 54.187,170.727 56.5,171.5C 57.5818,173.784 59.2484,174.95 61.5,175C 57.1941,171.105 58.0274,169.272 64,169.5C 70.0396,171.218 76.2063,172.718 82.5,174C 79.6353,174.183 76.9686,174.683 74.5,175.5 Z"/></g>
<g><path style="opacity:1" fill="#d8dadd" d="M 151.5,177.5 C 152.675,177.281 153.675,177.614 154.5,178.5C 152.948,179.798 151.948,179.465 151.5,177.5 Z"/></g>
<g><path style="opacity:1" fill="#9da1a5" d="M 132.5,179.5 C 133.552,179.351 134.552,179.517 135.5,180C 133.47,182.26 131.137,182.76 128.5,181.5C 129.949,180.828 131.282,180.161 132.5,179.5 Z"/></g>
<g><path style="opacity:1" fill="#dadcde" d="M 91.5,188.5 C 94.9571,188.667 95.2904,189.667 92.5,191.5C 91.6143,190.675 91.281,189.675 91.5,188.5 Z"/></g>
<g><path style="opacity:1" fill="#d4d6d7" d="M 112.5,190.5 C 114.465,190.948 114.798,191.948 113.5,193.5C 112.614,192.675 112.281,191.675 112.5,190.5 Z"/></g>
</svg>
